<mxfile host="app.diagrams.net" modified="2023-11-04T22:43:30.521Z" agent="Mozilla/5.0 (Linux; Android 10; K) AppleWebKit/537.36 (KHTML, like Gecko) Chrome/118.0.0.0 Mobile Safari/537.36" version="22.0.8" etag="jgtu5NUyq2-wYLM0GUi3" type="github">
  <diagram name="PÃ¡gina-1" id="Eq4drpA_ION1b90xCt6H">
    <mxGraphModel>
      <root>
        <mxCell id="0" />
        <mxCell id="1" parent="0" />
      </root>
    </mxGraphModel>
  </diagram>
</mxfile>
